<svg aria-hidden="true" style="position:absolute;width:0;height:0" xmlns="http://www.w3.org/2000/svg" overflow="hidden"><defs><symbol id="icon-envelope" viewBox="0 0 43 32"><path fill="var(--color1, #757575)" d="M38.667 0H4C1.794 0 0 1.794 0 4v24c0 2.206 1.794 4 4 4h34.667c2.206 0 4-1.794 4-4V4c0-2.206-1.794-4-4-4zm0 2.667c.181 0 .353.038.511.103L21.334 18.236 3.49 2.77a1.32 1.32 0 01.511-.103h34.667zm0 26.666H4A1.334 1.334 0 012.667 28V5.587L20.46 21.008a1.335 1.335 0 001.748 0L40.001 5.587V28c0 .736-.598 1.333-1.333 1.333z"/></symbol><symbol id="icon-facebook" viewBox="0 0 32 32"><path fill="var(--color2, #fff)" d="M32 16c0 4.418-1.791 8.418-4.686 11.314S20.419 32 16 32s-8.418-1.791-11.314-4.686C1.791 24.419 0 20.419 0 16S1.791 7.582 4.686 4.686 11.581 0 16 0c4.418 0 8.418 1.791 11.314 4.686S32 11.581 32 16z"/><path fill="var(--color3, #afb1b8)" d="M18.422 11.142h1.328V8.829a17.317 17.317 0 00-1.935-.102c-1.915 0-3.226 1.204-3.226 3.418v2.037h-2.113v2.585h2.113v6.505h2.59v-6.505h2.027l.322-2.585h-2.35v-1.781c.001-.747.202-1.259 1.243-1.259z"/></symbol><symbol id="icon-Group1" viewBox="0 0 72 32"><path fill="var(--color4, #f5f4fa)" d="M1.067 0h69.867c.589 0 1.067.478 1.067 1.067v29.867c0 .589-.478 1.067-1.067 1.067H1.067A1.067 1.067 0 010 30.934V1.067C0 .478.478 0 1.067 0z"/><path fill="var(--color5, #212121)" d="M44.618 19.557l-4.925-4.961.547-2.692c.141.055.291.084.442.085h.004a1.26 1.26 0 10-1.172-.837l-2.893.353-4.719-4.744a.309.309 0 00-.438-.002l-.882.877a.31.31 0 000 .44l.475.482a8.716 8.716 0 001.47 10.303.302.302 0 00.085.057c-.02.105-.03.212-.03.319v3.609h-3.733a1.558 1.558 0 00-1.556 1.556v.622a.31.31 0 00.311.311h14.311a.31.31 0 00.311-.311v-.622a1.558 1.558 0 00-1.555-1.556h-3.733v-1.599a8.785 8.785 0 001.778.187 8.673 8.673 0 004.107-1.04l.477.48a.309.309 0 00.438.002l.882-.877a.31.31 0 000-.44zm-4.371-9.254a.623.623 0 11.439 1.063h-.002a.623.623 0 01-.436-1.063h-.001zm-.733 2.044l-.349 1.718-.686-.69 1.035-1.029zm-.353-.526l-1.12 1.113-.866-.871 1.986-.242zm1.508 11.646c.515 0 .933.418.933.933v.311H27.913V24.4c0-.515.418-.933.933-.933h11.822zm-4.355-1.245v.622h-3.111v-.622h3.111zm-3.112-.622v-2.364c0-.755.698-1.369 1.555-1.369s1.556.614 1.556 1.369V21.6h-3.111zm3.734-.989v-1.375c0-1.098-.977-1.991-2.178-1.991a2.217 2.217 0 00-1.914 1.042 8.09 8.09 0 01-1.329-9.268l10.851 10.913a8.068 8.068 0 01-5.43.679zm6.585-.399L31.238 7.857l.44-.439 4.629 4.655c.002 0 .003.004.006.006l7.65 7.695-.441.439z"/><path fill="var(--color6, #2196f3)" d="M34.761 18.489h-.003a.934.934 0 00-.003 1.867h.003a.934.934 0 00.003-1.867zm.217 1.154a.31.31 0 11-.438-.441.314.314 0 01.218-.091.312.312 0 01.218.532h.003z"/></symbol><symbol id="icon-Group2" viewBox="0 0 72 32"><path fill="var(--color4, #f5f4fa)" d="M1.067 0h69.867c.589 0 1.067.478 1.067 1.067v29.867c0 .589-.478 1.067-1.067 1.067H1.067A1.067 1.067 0 010 30.934V1.067C0 .478.478 0 1.067 0z"/><path fill="var(--color5, #212121)" d="M44.923 15.592c-.001-4.931-3.999-8.927-8.93-8.926a8.928 8.928 0 00-2.714 17.433.394.394 0 00.309-.038.37.37 0 00.165-.208l2.255-7.146a1.116 1.116 0 10-.49-2.12l-2.978-2.979a.372.372 0 00-.526.526l2.977 2.98a1.095 1.095 0 00.313 1.347l-2.148 6.809A8.192 8.192 0 1138.82 7.897a8.192 8.192 0 01.502 15.169l-.232-1.093a.372.372 0 00-.612-.201L36.24 23.77a.372.372 0 00.134.632l2.858.912a.373.373 0 00.478-.431l-.228-1.073a8.9 8.9 0 005.442-8.219zm-8.928-.372a.373.373 0 11-.001.745.373.373 0 01.001-.745zm1.226 8.671l1.274-1.136.352 1.657-1.626-.52z"/><path fill="var(--color6, #2196f3)" d="M35.623 8.525v.744a.371.371 0 10.744 0v-.744a.373.373 0 00-.744 0zM28.928 15.22a.372.372 0 100 .744h.744a.372.372 0 100-.744h-.744zM43.063 15.964a.372.372 0 100-.744h-.744a.373.373 0 000 .744h.744z"/></symbol><symbol id="icon-Group3" viewBox="0 0 72 32"><path fill="var(--color4, #f5f4fa)" d="M1.067 0h69.867c.589 0 1.067.478 1.067 1.067v29.867c0 .589-.478 1.067-1.067 1.067H1.067A1.067 1.067 0 010 30.934V1.067C0 .478.478 0 1.067 0z"/><path fill="var(--color6, #2196f3)" d="M35.373 15.396h.622v2.799h-.622v-2.799zM37.861 16.64h.622v1.555h-.622V16.64zM32.886 17.573h.622v.622h-.622v-.622zM31.02 17.262h.622v.933h-.622v-.933z"/><path fill="var(--color5, #212121)" d="M27.599 23.17h14.926a.933.933 0 00.933-.933v-1.244a.933.933 0 00-.933-.933h-.311v-7.754l1.766-1.673a.938.938 0 10-.437-.445l-1.331 1.262v-.717a.933.933 0 00-.933-.933H28.841a.933.933 0 00-.933.933v9.328h-.311a.933.933 0 00-.933.933v1.244c0 .515.418.933.933.933zM44.391 9.488a.31.31 0 110 .621.31.31 0 010-.621zm-15.859 1.244a.31.31 0 01.311-.311h12.438a.31.31 0 01.311.311v1.306l-.622.591v-1.275a.31.31 0 00-.311-.311H29.465a.31.31 0 00-.311.311v7.774a.31.31 0 00.311.311h11.194a.311.311 0 00.311-.311v-5.643l.622-.589v7.165h-13.06v-9.328zm2.799 4.042a.933.933 0 10.646 1.603l1.081.542a.31.31 0 00.371-.072l2.298-2.585 2.259 1.692a.31.31 0 00.4-.023l1.963-1.859v4.743H29.777v-7.152h10.572v1.552l-2.2 2.083-2.278-1.707a.311.311 0 00-.419.042l-2.329 2.621-.871-.435c.006-.037.01-.075.012-.113a.933.933 0 00-.933-.933zm.311.933a.31.31 0 11-.621 0 .31.31 0 01.621 0zm1.865 4.975h3.11v.311a.31.31 0 01-.311.311h-2.488a.31.31 0 01-.311-.311v-.311zm-6.218.311a.31.31 0 01.311-.311h5.286v.311c0 .515.418.933.933.933h2.488a.933.933 0 00.933-.933v-.311h5.286a.31.31 0 01.311.311v1.244a.31.31 0 01-.311.311H27.6a.31.31 0 01-.311-.311v-1.244z"/></symbol><symbol id="icon-Group4" viewBox="0 0 72 32"><path fill="var(--color4, #f5f4fa)" d="M1.067 0h69.867c.589 0 1.067.478 1.067 1.067v29.867c0 .589-.478 1.067-1.067 1.067H1.067A1.067 1.067 0 010 30.934V1.067C0 .478.478 0 1.067 0z"/><path fill="var(--color6, #2196f3)" d="M45.318 9.306a.315.315 0 00-.251-.212l-1.114-.162-.499-1.01c-.105-.213-.453-.213-.558 0l-.499 1.01-1.115.162a.311.311 0 00-.172.531l.807.786-.19 1.11a.311.311 0 00.451.328l.997-.524.997.524a.311.311 0 00.451-.327l-.19-1.11.807-.786a.312.312 0 00.079-.319zm-1.436.774a.31.31 0 00-.089.275l.111.65-.583-.307a.308.308 0 00-.29 0l-.583.307.111-.65a.309.309 0 00-.089-.275l-.473-.46.653-.095a.31.31 0 00.234-.17l.292-.591.292.591a.31.31 0 00.234.17l.653.095-.472.46zM41.911 18.638h-.622v.622h.622v-.622zM41.911 19.882h-.622v.622h.622v-.622zM42.533 19.26h-.622v.622h.622v-.622zM41.289 19.26h-.622v.622h.622v-.622zM39.733 22.06h-.622v.622h.622v-.622zM39.733 23.305h-.622v.622h.622v-.622zM40.356 22.682h-.622v.622h.622v-.622zM39.111 22.682h-.622v.622h.622v-.622zM36 20.816h-.622v.622H36v-.622zM36 22.06h-.622v.622H36v-.622zM36.622 21.438H36v.622h.622v-.622zM35.378 21.438h-.622v.622h.622v-.622zM30.089 10.238h-.622v.622h.622v-.622zM30.089 11.482h-.622v.622h.622v-.622zM30.711 10.86h-.622v.622h.622v-.622zM29.467 10.86h-.622v.622h.622v-.622z"/><path fill="var(--color5, #212121)" d="M41.084 14.926a1.036 1.036 0 00-.693-.411 1.038 1.038 0 00-.782.205l-.73.56-1.107.827-.792-.316a4.046 4.046 0 002.4-3.687c0-2.23-1.822-4.044-4.061-4.044s-4.061 1.814-4.061 4.044c0 .808.242 1.56.653 2.192l-1.612-.014h-.003c-.005 0-.009.002-.014.003a.289.289 0 00-.091.018c-.007.003-.015.004-.022.008l-.011.004-1.886.931h-.001l-1.104.531a1.039 1.039 0 00.545 1.927c.169 0 .336-.041.49-.123l.81-.431 1.321-.682.791-.005-3.174 3.159-.001.001-.781.778a.967.967 0 000 1.375.98.98 0 001.377 0l.767-.764 1.015-.758.525.523-1.027 1.023-.001.001-.781.778a.967.967 0 000 1.375.979.979 0 001.377 0l2.031-2.022.001-.001.589-.583-.002-.002c.004-.004.009-.005.013-.009l3.013-3.301 2.025.288a.312.312 0 00.153-.019l.029-.014c.011-.006.023-.009.034-.016l1.874-1.244c.007-.005.011-.012.017-.017.007-.006.017-.008.024-.015l.742-.695c.386-.362.439-.954.124-1.378zm-13.175 2.107c-.101.054-.216.065-.326.03a.417.417 0 01-.124-.735l.766-.369.185.539.077.226-.579.308zm2.04-1.067l-.903.467-.149-.436-.107-.313 1.182-.584-.023.866zm8.808-3.862c0 .536-.128 1.041-.349 1.493l-2.439-1.108a1.086 1.086 0 00-.46-.81l.854-2.835a3.429 3.429 0 012.394 3.26zm-6.876 0a3.434 3.434 0 013.873-3.392l-.835 2.773-.033-.003c-.602 0-1.093.488-1.093 1.089s.49 1.089 1.093 1.089c.405 0 .755-.224.944-.551l2.253 1.024a3.436 3.436 0 01-2.763 1.394 3.434 3.434 0 01-3.438-3.422zm3.474.467a.47.47 0 01-.94 0c0-.258.211-.467.47-.467s.47.209.47.467zm-7.25 8.764a.354.354 0 01-.498 0 .348.348 0 010-.493l.561-.559.497.494-.559.557zm1.874 2.178a.354.354 0 01-.602-.247c0-.093.036-.18.103-.246l.562-.559.497.494-.56.557zm2.031-2.023l-.001.001-1.03 1.027-.497-.494L31.511 21l.001-.001a.292.292 0 00.052-.079c.004-.008.012-.015.015-.023.01-.024.011-.05.015-.075.002-.014.008-.028.008-.042 0-.021-.007-.041-.012-.062-.004-.019-.004-.038-.011-.056a.318.318 0 00-.053-.08c-.006-.007-.008-.016-.015-.022h-.001l-.001-.001-.937-.933c-.01-.01-.023-.014-.034-.022-.017-.013-.032-.025-.051-.034s-.036-.014-.055-.019a.304.304 0 00-.06-.012c-.019-.001-.037.001-.055.003a.254.254 0 00-.116.038c-.012.007-.025.009-.035.017l-1.035.772-.525-.523 1.399-1.392 2.543 2.502-.541.536zm3.978-4.093c-.009-.001-.017.002-.026.002a.302.302 0 00-.174.043.343.343 0 00-.049.036c-.007.006-.017.01-.023.017l-2.741 3.002-2.525-2.483 1.653-1.644a.311.311 0 00-.221-.531l-1.294.008.016-.938 1.811.016a4.052 4.052 0 003.652 1.153.27.27 0 00.075.049l1.406.56.089.442.104.516-1.752-.249zm2.357.103l-.182-.909.844-.63.552.733-1.214.806zm2.19-1.651l-.489.458-.543-.721.485-.372a.425.425 0 01.597.083.417.417 0 01-.05.553z"/><path fill="var(--color5, #212121)" d="M34.601 17.484l-1.25-1.244a.31.31 0 00-.439 0l-1.25 1.244a.315.315 0 000 .442l1.25 1.244a.307.307 0 00.438 0l1.25-1.244a.312.312 0 000-.442zm-1.469 1.026l-.809-.805.809-.805.809.805-.809.805zM36.679 9.625l-.15.604c.041.01 1.014.264 1.014 1.254h.622c0-1.177-.972-1.73-1.486-1.858zM38.165 12.104h-.622v.622h.622v-.622z"/></symbol><symbol id="icon-instagram" viewBox="0 0 32 32"><path fill="var(--color2, #fff)" d="M32 16c0 4.418-1.791 8.418-4.686 11.314S20.419 32 16 32s-8.418-1.791-11.314-4.686C1.791 24.419 0 20.419 0 16S1.791 7.582 4.686 4.686 11.581 0 16 0c4.418 0 8.418 1.791 11.314 4.686S32 11.581 32 16z"/><path fill="var(--color3, #afb1b8)" d="M23.258 13.004c-.034-.773-.159-1.304-.338-1.765a3.557 3.557 0 00-.841-1.29 3.589 3.589 0 00-1.287-.838c-.463-.179-.992-.304-1.764-.338-.779-.037-1.026-.046-3.001-.046s-2.222.009-2.998.043c-.773.034-1.304.159-1.764.338a3.557 3.557 0 00-1.29.841 3.589 3.589 0 00-.838 1.287c-.179.463-.304.992-.338 1.764-.037.779-.045 1.026-.045 3.001s.008 2.222.043 2.998c.034.773.159 1.304.338 1.765.185.489.472.926.841 1.29.364.369.804.656 1.287.838.463.179.992.304 1.765.338.776.034 1.023.043 2.998.043s2.222-.008 2.998-.043c.773-.034 1.304-.159 1.764-.338a3.72 3.72 0 002.128-2.128c.179-.463.304-.992.338-1.765.034-.776.043-1.023.043-2.998s-.003-2.222-.037-2.998zm-1.309 5.938c-.031.71-.151 1.094-.25 1.35a2.409 2.409 0 01-1.381 1.381c-.256.099-.642.219-1.35.25-.767.034-.997.043-2.938.043s-2.174-.008-2.938-.043c-.71-.031-1.094-.15-1.35-.25a2.228 2.228 0 01-.835-.543 2.264 2.264 0 01-.543-.835c-.099-.256-.219-.642-.25-1.35-.034-.767-.043-.997-.043-2.938s.008-2.174.043-2.938c.031-.71.151-1.094.25-1.35.117-.315.301-.602.546-.835.236-.242.52-.426.835-.543.256-.099.642-.219 1.35-.25.767-.034.997-.043 2.938-.043 1.944 0 2.174.008 2.938.043.71.031 1.094.151 1.35.25.315.116.602.301.835.543.241.236.426.52.543.835.099.256.219.642.25 1.35.034.767.043.997.043 2.938s-.009 2.168-.043 2.935z"/><path fill="var(--color3, #afb1b8)" d="M16.027 12.265a3.737 3.737 0 000 7.472c2.063 0 3.737-1.674 3.737-3.736s-1.674-3.736-3.737-3.736zm0 6.16a2.424 2.424 0 110-4.849 2.424 2.424 0 010 4.849zM20.784 12.117a.872.872 0 11-1.744 0 .872.872 0 011.744 0z"/></symbol><symbol id="icon-linkedin" viewBox="0 0 32 32"><path fill="var(--color2, #fff)" d="M32 16c0 4.418-1.791 8.418-4.686 11.314S20.419 32 16 32s-8.418-1.791-11.314-4.686C1.791 24.419 0 20.419 0 16S1.791 7.582 4.686 4.686 11.581 0 16 0c4.418 0 8.418 1.791 11.314 4.686S32 11.581 32 16z"/><path fill="var(--color3, #afb1b8)" d="M23.269 23.273v-.001h.004v-5.335c0-2.61-.562-4.62-3.613-4.62-1.467 0-2.451.805-2.853 1.568h-.042v-1.324h-2.893v9.711h3.012v-4.809c0-1.266.24-2.49 1.808-2.49 1.545 0 1.568 1.445 1.568 2.572v4.728h3.009zM8.967 13.562h3.016v9.711H8.967v-9.711zM10.474 8.727c-.964 0-1.747.782-1.747 1.747s.782 1.763 1.747 1.763c.964 0 1.747-.799 1.747-1.763s-.783-1.747-1.747-1.747z"/></symbol><symbol id="icon-phone" viewBox="0 0 20 32"><path fill="var(--color1, #757575)" d="M17 0H3C1.346 0 0 1.346 0 3v26c0 1.654 1.346 3 3 3h14c1.654 0 3-1.346 3-3V3c0-1.654-1.346-3-3-3zM3 2h14a1 1 0 011 1v21H2V3a1 1 0 011-1zm14 28H3a1 1 0 01-1-1v-3h16v3a1 1 0 01-1 1z"/><path fill="var(--color1, #757575)" d="M4.707 27.478c.391.365.391.956 0 1.321s-1.024.365-1.414 0c-.391-.365-.391-.956 0-1.321s1.024-.365 1.414 0z"/></symbol><symbol id="icon-twitter" viewBox="0 0 32 32"><path fill="var(--color2, #fff)" d="M32 16c0 4.418-1.791 8.418-4.686 11.314S20.419 32 16 32s-8.418-1.791-11.314-4.686C1.791 24.419 0 20.419 0 16S1.791 7.582 4.686 4.686 11.581 0 16 0c4.418 0 8.418 1.791 11.314 4.686S32 11.581 32 16z"/><path fill="var(--color3, #afb1b8)" d="M23.273 11.49a6.248 6.248 0 01-1.718.471 2.967 2.967 0 001.312-1.648 5.963 5.963 0 01-1.891.722 2.981 2.981 0 00-5.158 2.039c0 .236.02.464.069.68a8.439 8.439 0 01-6.146-3.119 2.985 2.985 0 00.917 3.985 2.943 2.943 0 01-1.347-.367v.033a2.996 2.996 0 002.389 2.93 2.992 2.992 0 01-.782.098 2.64 2.64 0 01-.565-.051 3.01 3.01 0 002.786 2.077 5.991 5.991 0 01-3.697 1.272 5.59 5.59 0 01-.714-.041 8.393 8.393 0 004.575 1.338c5.487 0 8.487-4.545 8.487-8.485 0-.132-.005-.259-.011-.385a5.95 5.95 0 001.495-1.548z"/></symbol></defs></svg>